<svg xmlns="http://www.w3.org/2000/svg" viewBox="0 0 1200 1200" role="img" aria-labelledby="title desc">
  <title id="title">Performance Driven</title>
  <desc id="desc">Data-inspired dashboard style visual showing speed and growth.</desc>
  <defs>
    <linearGradient id="bg" x1="0%" y1="0%" x2="100%" y2="100%">
      <stop offset="0%" stop-color="#0a0a0a" />
      <stop offset="100%" stop-color="#123449" />
    </linearGradient>
    <linearGradient id="line" x1="0%" y1="100%" x2="100%" y2="0%">
      <stop offset="0%" stop-color="#00ffff" />
      <stop offset="100%" stop-color="#ffffff" />
    </linearGradient>
  </defs>
  <rect width="1200" height="1200" fill="url(#bg)" />
  <rect x="110" y="140" width="980" height="620" rx="28" fill="#ffffff0c" stroke="#ffffff22" />
  <g fill="#ffffff20">
    <rect x="180" y="250" width="70" height="380" rx="12" />
    <rect x="290" y="330" width="70" height="300" rx="12" />
    <rect x="400" y="280" width="70" height="350" rx="12" />
    <rect x="510" y="220" width="70" height="410" rx="12" />
    <rect x="620" y="300" width="70" height="330" rx="12" />
    <rect x="730" y="190" width="70" height="440" rx="12" />
    <rect x="840" y="250" width="70" height="380" rx="12" />
  </g>
  <path d="M170 620 L320 520 L450 560 L560 430 L700 470 L820 340 L930 290" fill="none" stroke="url(#line)" stroke-width="14" stroke-linecap="round" stroke-linejoin="round"/>
  <circle cx="930" cy="290" r="18" fill="#00ffff" />
  <rect x="150" y="840" width="420" height="150" rx="24" fill="#ffffff0f" />
  <text x="190" y="926" fill="#ffffff" font-size="58" font-family="Inter, Arial, sans-serif" letter-spacing="1.2">PERFORMANCE</text>
  <text x="190" y="980" fill="#96fdff" font-size="58" font-family="Inter, Arial, sans-serif" letter-spacing="1.2">DRIVEN</text>
</svg>
